<!DOCTYPE svg PUBLIC "-//W3C//DTD SVG 1.1//EN" "http://www.w3.org/Graphics/SVG/1.1/DTD/svg11.dtd">
<!-- Uploaded to: SVG Repo, www.svgrepo.com, Transformed by: SVG Repo Mixer Tools -->
<svg version="1.1" id="Layer_1" xmlns="http://www.w3.org/2000/svg" xmlns:xlink="http://www.w3.org/1999/xlink" viewBox="-261.12 -261.12 1034.24 1034.24" xml:space="preserve" width="167px" height="167px" fill="#3d4d61" stroke="#3d4d61" stroke-width="5.12">
<g id="SVGRepo_bgCarrier" stroke-width="0">
<path transform="translate(-261.12, -261.12), scale(32.32)" d="M16,28.134429647930357C18.32980081594204,28.78458683906936,20.750886676489927,31.42679831610504,22.852440258984725,30.229238816515466C25.032262439152284,28.98707835911862,24.511104339384758,25.559700170340133,24.874619854696437,23.077273170567835C25.124485848750105,21.370952356635197,23.982671493560062,19.565027678791292,24.647094938442073,17.9736429921315C25.5116861141064,15.90282931484212,28.546065915615763,15.196312400959368,29.075495545909313,13.015603467228729C29.576556743481234,10.951743480236662,29.032809023497194,8.226860711285603,27.3174122999964,6.97466485974247C25.44772936693117,5.609844010774473,22.506122916360763,7.820376160818489,20.464348157854857,6.729685528466094C18.284941168524877,5.565473473515923,18.43187097088901,0.4917707400341577,16.000000000000004,0.9290442413797493C13.279402133761016,1.4182335811779778,14.802838180836599,7.153824256829288,12.247189505295214,8.207208710464297C9.448977203131763,9.360572772308515,5.9901920221714375,4.286113362609223,3.541084386368947,6.0643463437977445C1.476514547923828,7.563376490542279,5.286846555306274,10.951780260493885,4.978918572456564,13.48451008344073C4.714950901793752,15.655663174479617,1.7353770216601145,17.03115001619227,1.9430358803405472,19.208410330048746C2.143619182479394,21.31148489255161,4.38426198585259,22.606523105183282,5.9808899744102675,23.98997362569271C7.405239051553876,25.22414745095649,9.029604756930686,26.13741942343956,10.771150160010418,26.857818572202202C12.450098527443446,27.55232413753302,14.249943590498503,27.646056671257572,16,28.134429647930357" fill="#f9becf" strokewidth="0"/>
</g>
<g id="SVGRepo_tracerCarrier" stroke-linecap="round" stroke-linejoin="round"/>
<g id="SVGRepo_iconCarrier"> <g> <polygon style="fill:#61cca3;" points="104,198.384 93.456,186.352 258.824,41.32 418.44,186.448 407.688,198.296 258.632,62.76 "/> <circle style="fill:#61cca3;" cx="258.72" cy="64.496" r="37.48"/> </g> <rect x="4" y="181.248" width="504" height="299.736"/> <path d="M504,185.248v291.736H8V185.248H504 M512,177.248H0v307.736h512V177.248L512,177.248z"/> <path style="fill:#FFFFFF;" d="M346.064,291.872v129.992L165.944,422V291.872"/> <rect x="144.72" y="415.032" style="fill:#61cca3;" width="222.68" height="13.928"/> <rect x="227.928" y="350.624" width="56.16" height="64.4"/> <path style="fill:#61cca3;" d="M367.376,266.56l-35.6-35.368h-75.96h-9.448h-66.184l-35.592,35.368h-0.008v33.672 c0,15.32,12.472,27.736,27.856,27.736s27.856-12.416,27.856-27.736c0,15.32,12.472,27.736,27.856,27.736S256,315.552,256,300.232 c0,15.32,12.472,27.736,27.856,27.736c15.36,0,27.808-12.376,27.848-27.656c0.04,15.288,12.488,27.656,27.848,27.656 c15.384,0,27.856-12.416,27.856-27.736V266.56H367.376z"/> </g>
</svg>